<?xml version="1.0" encoding="UTF-8" standalone="no"?>
<svg width="25px" height="20px" viewBox="0 0 25 20" version="1.1" xmlns="http://www.w3.org/2000/svg" xmlns:xlink="http://www.w3.org/1999/xlink">
    <!-- Generator: Sketch 43.1 (39012) - http://www.bohemiancoding.com/sketch -->
    <title>icon_wechat</title>
    <desc>Created with Sketch.</desc>
    <defs></defs>
    <g id="Page-1" stroke="none" stroke-width="1" fill="none" fill-rule="evenodd">
        <g id="content" transform="translate(-645.000000, -610.000000)" fill-rule="nonzero" fill="#FFFFFF">
            <g id="Group-15" transform="translate(605.000000, 583.000000)">
                <g id="Group-11" transform="translate(40.000000, 27.000000)">
                    <path d="M16.9235925,6.05221164 C17.2103068,6.05221164 17.4945388,6.07263675 17.7762884,6.10327439 C17.0104756,2.60164676 13.1987886,0 8.84842618,0 C3.98421209,0 -1.77635684e-15,3.25652647 -1.77635684e-15,7.39133211 C-1.77635684e-15,9.77851537 1.32558832,11.7380481 3.54110813,13.2584413 L2.65614141,15.8715772 L5.74918082,14.3486309 C6.85632014,14.564371 7.74376923,14.7852174 8.84842618,14.7852174 C9.12645219,14.7852174 9.40199583,14.7724517 9.6750571,14.75075 C9.50129085,14.1699113 9.40199583,13.5609881 9.40199583,12.9303632 C9.40075463,9.13384823 12.7209314,6.05221164 16.9235925,6.05221164 Z M12.1661206,3.69566605 C12.8326383,3.69566605 13.2732599,4.12586968 13.2732599,4.78074936 C13.2732599,5.43179934 12.8313971,5.86838579 12.1661206,5.86838579 C11.5033264,5.86838579 10.8368087,5.43179934 10.8368087,4.78074936 C10.8368087,4.12714623 11.5033264,3.69566605 12.1661206,3.69566605 Z M5.97259458,5.86838576 C5.30980042,5.86838576 4.63955913,5.43179931 4.63955913,4.78074933 C4.63955913,4.12714623 5.30855922,3.69566602 5.97259458,3.69566602 C6.63538874,3.69566602 7.0772515,4.12586965 7.0772515,4.78074933 C7.0772515,5.43179931 6.63662994,5.86838576 5.97259458,5.86838576 Z M25,12.8256846 C25,9.35214145 21.4601331,6.51943577 17.4833681,6.51943577 C13.2732599,6.51943577 9.95680667,9.3508649 9.95680667,12.8256846 C9.95680667,16.3056105 13.2732598,19.1319334 17.4833681,19.1319334 C18.3646113,19.1319334 19.2533016,18.9136401 20.1382683,18.6953469 L22.56479,20 L21.8995135,17.8285568 C23.676894,16.5213506 25,14.7852173 25,12.8256846 Z M15.0431933,11.7380481 C14.6025717,11.7380481 14.1582266,11.3078445 14.1582266,10.8687049 C14.1582266,10.4359482 14.6025718,10.0006383 15.0431933,10.0006383 C15.7121934,10.0006383 16.1503326,10.4372248 16.1503326,10.8687049 C16.1515738,11.3078445 15.7134346,11.7380481 15.0431933,11.7380481 Z M19.911131,11.7380481 C19.4729918,11.7380481 19.0323702,11.3078445 19.0323702,10.8687049 C19.0323702,10.4359482 19.4742329,10.0006383 19.911131,10.0006383 C20.5739251,10.0006383 21.0182703,10.4372248 21.0182703,10.8687049 C21.0182703,11.3078445 20.5739251,11.7380481 19.911131,11.7380481 Z" id="icon_wechat"></path>
                </g>
            </g>
        </g>
    </g>
</svg>