<?xml version="1.0" encoding="UTF-8" standalone="no"?>
<svg width="18px" height="20px" viewBox="0 0 18 20" version="1.1" xmlns="http://www.w3.org/2000/svg" xmlns:xlink="http://www.w3.org/1999/xlink">
    <!-- Generator: Sketch 43.1 (39012) - http://www.bohemiancoding.com/sketch -->
    <title>icon_QQ</title>
    <desc>Created with Sketch.</desc>
    <defs></defs>
    <g id="Page-1" stroke="none" stroke-width="1" fill="none" fill-rule="evenodd">
        <g id="content" transform="translate(-988.000000, -610.000000)" fill-rule="nonzero" fill="#FFFFFF">
            <g id="Group-13" transform="translate(930.000000, 583.000000)">
                <g id="Group-8" transform="translate(58.000000, 27.000000)">
                    <path d="M0.616421154,11.5328893 C-0.0910160739,13.2941408 -0.208069091,14.9734823 0.361701703,15.2854993 C0.755870102,15.5020153 1.36961007,15.0066483 1.947288,14.1055222 C2.17650351,15.0924416 2.74145234,15.9779441 3.54935129,16.6937788 C2.70340208,17.023361 2.14917134,17.561716 2.14917134,18.1702634 C2.14917134,19.1728065 3.64592804,19.9822235 5.49194705,19.9822235 C7.15745024,19.9822235 8.53713108,19.324932 8.79173628,18.4589134 L9.18791574,18.4589134 C9.44745716,19.324932 10.8241443,19.9822235 12.4916128,19.9822235 C14.3396657,19.9822235 15.8343885,19.1727837 15.8343885,18.1702634 C15.8343885,17.561716 15.2811633,17.0272898 14.4332259,16.6937788 C15.2382225,15.9779441 15.8070563,15.0924644 16.0343751,14.1055222 C16.6119387,15.0066483 17.2227992,15.5020382 17.6189558,15.2854993 C18.1916289,14.9734823 18.0774783,13.2941408 17.3632537,11.5328893 C16.8052293,10.1539156 16.0490238,9.13579449 15.4723514,8.90760634 C15.4801672,8.82375462 15.4870002,8.73106317 15.4870002,8.64232335 C15.4870002,8.10789712 15.3445575,7.61444882 15.1016759,7.21264125 C15.1065436,7.1804802 15.1065436,7.15023783 15.1065436,7.11807679 C15.1065436,6.87134121 15.0508965,6.64214804 14.9553025,6.44415656 C14.8099346,2.85440757 12.5882353,0 8.99085438,0 C5.39436476,0 3.16976309,2.8544304 3.02439523,6.44420225 C2.93076653,6.64509462 2.87317698,6.87527 2.87317698,7.12102337 C2.87317698,7.15323011 2.87317698,7.18342679 2.87708484,7.2156335 C2.63904808,7.61449451 2.49655966,8.10791996 2.49655966,8.64431058 C2.49655966,8.73405545 2.50140449,8.82377748 2.50730056,8.91153511 C1.93263924,9.13775888 1.17353141,10.1539156 0.616421154,11.5328893 Z" id="icon_QQ"></path>
                </g>
            </g>
        </g>
    </g>
</svg>