<?xml version="1.0" encoding="UTF-8" standalone="no"?>
<svg width="80px" height="96px" viewBox="0 0 80 96" version="1.1" xmlns="http://www.w3.org/2000/svg" xmlns:xlink="http://www.w3.org/1999/xlink">
    <!-- Generator: Sketch 43.1 (39012) - http://www.bohemiancoding.com/sketch -->
    <title>icon_add</title>
    <desc>Created with Sketch.</desc>
    <defs></defs>
    <g id="Page-1" stroke="none" stroke-width="1" fill="none" fill-rule="evenodd">
        <g id="content" transform="translate(-316.000000, -194.000000)" fill-rule="nonzero" fill="#7269CD">
            <g id="icon_add" transform="translate(316.000000, 194.000000)">
                <path d="M79.9760187,39.7106576 C79.9760187,17.7788254 62.0931148,0 40.033911,0 C17.9743326,0 0.0918032787,17.7788254 0.0918032787,39.7106576 C0.0918032787,40.403918 0.160562061,41.0795707 0.197283372,41.7593444 C0.163372365,42.0948293 0.0918032787,42.420199 0.0918032787,42.7661737 C0.0918032787,67.2046829 36.9611241,94.8884605 36.9611241,94.8884605 C36.9611241,94.8884605 40.033911,97.179161 43.1057611,94.8884605 C46.1781733,92.5958868 79.9758314,67.2048702 79.9758314,42.7661737 C79.9758314,42.4203863 79.9038876,42.0948293 79.8703513,41.7593444 C79.90726,41.0795707 79.9760187,40.403918 79.9760187,39.7106576 Z M40.033911,54.9850537 C31.5482904,54.9850537 24.6709133,48.1474185 24.6709133,39.7106576 C24.6709133,31.276519 31.548103,24.4381346 40.033911,24.4381346 C48.519719,24.4381346 55.3955972,31.276519 55.3955972,39.7106576 C55.3955972,48.1476059 48.519719,54.9850537 40.033911,54.9850537 Z" id="Shape"></path>
            </g>
        </g>
    </g>
</svg>