<?xml version="1.0" encoding="UTF-8" standalone="no"?>
<svg width="20px" height="20px" viewBox="0 0 20 20" version="1.1" xmlns="http://www.w3.org/2000/svg" xmlns:xlink="http://www.w3.org/1999/xlink">
    <!-- Generator: Sketch 43.1 (39012) - http://www.bohemiancoding.com/sketch -->
    <title>icon_phone</title>
    <desc>Created with Sketch.</desc>
    <defs></defs>
    <g id="Page-1" stroke="none" stroke-width="1" fill="none" fill-rule="evenodd">
        <g id="content" transform="translate(-320.000000, -704.000000)" fill-rule="nonzero" fill="#FFFFFF">
            <g id="Group-14" transform="translate(280.000000, 677.000000)">
                <g id="Group-12" transform="translate(40.000000, 27.000000)">
                    <g id="Group-16">
                        <g id="电话">
                            <path d="M0.0387121951,2.82478983 C0.0387121951,2.82478983 -0.838868293,7.30166178 5.76749268,13.9209384 C5.81557073,13.9687977 5.86177561,14.0122776 5.90922927,14.0595112 C5.95668293,14.1070577 6.00007805,14.1536657 6.0478439,14.2018377 C12.6542049,20.8211144 17.1223415,19.9418182 17.1223415,19.9418182 C17.3958244,19.9052199 17.9705756,19.7409971 18.1650732,19.5454936 C18.1650732,19.5454936 19.1815805,18.7084262 19.8044098,17.6771065 C20.4275512,16.6460997 19.2499512,15.0905181 18.5724878,14.412043 C17.2056976,13.0425806 15.9488,12.7754448 15.395278,13.156129 C15.1464585,13.3272336 14.1577366,14.3948387 14.1577366,14.3948387 C13.9629268,14.5903421 13.5773659,14.7526882 13.3016976,14.756129 C13.3016976,14.756129 11.5740098,14.7736461 8.36027317,11.6036755 C5.1964878,8.38396872 5.21365854,6.65290323 5.21365854,6.65290323 C5.21740488,6.3770088 5.37912195,5.99038123 5.5742439,5.79519062 C5.5742439,5.79519062 6.79992195,4.56805474 6.81053659,4.55522972 C7.27539512,3.97216031 6.50552195,2.52261975 5.55707317,1.37180841 C4.9473561,0.63202346 4.45346341,0.199100684 3.52967805,0.0226783969 C2.29681951,-0.21255132 0.0827317073,1.43280547 0.0387121951,2.82478983 Z" id="icon_phone"></path>
                        </g>
                    </g>
                </g>
            </g>
        </g>
    </g>
</svg>