<?xml version="1.0" encoding="UTF-8" standalone="no"?>
<svg width="20px" height="17px" viewBox="0 0 20 17" version="1.1" xmlns="http://www.w3.org/2000/svg" xmlns:xlink="http://www.w3.org/1999/xlink">
    <!-- Generator: Sketch 43.1 (39012) - http://www.bohemiancoding.com/sketch -->
    <title>Group 6</title>
    <desc>Created with Sketch.</desc>
    <defs></defs>
    <g id="Page-1" stroke="none" stroke-width="1" fill="none" fill-rule="evenodd">
        <g id="content" transform="translate(-320.000000, -612.000000)" fill-rule="nonzero" fill="#FFFFFF">
            <g id="Group-14" transform="translate(280.000000, 583.000000)">
                <g id="Group-12" transform="translate(40.000000, 27.000000)">
                    <g id="Group-6" transform="translate(0.000000, 2.000000)">
                        <g id="email-filling">
                            <path d="M19.9999999,3.12572797 L19.9999999,2.12293803 C19.9999999,0.951592269 19.0586565,0 17.8974506,0 L0,0 L0,14.8727381 C0,16.0495791 0.941343416,17 2.10254937,17 L19.9999999,17 L19.9999999,7.15836011 L19.9999999,4.22052827 L10.5713182,9.4516666 C10.3944878,9.54954701 10.1777942,9.53682809 10.0133955,9.41891905 L2.85304141,4.28341363 C2.6160908,4.11346933 2.56049187,3.78181509 2.7288577,3.54264305 C2.89722353,3.30347102 3.22579743,3.24735088 3.46274804,3.41729512 L10.3413473,8.37127295 C10.3413473,8.37127295 10.4731765,8.29824353 10.5390912,8.26172884 C13.4784567,6.63341024 19.6944467,3.2900455 20,3.12572793 L19.9999999,3.12572797 Z" id="icon_mial"></path>
                        </g>
                    </g>
                </g>
            </g>
        </g>
    </g>
</svg>