<?xml version="1.0" encoding="UTF-8" standalone="no"?>
<svg width="20px" height="18px" viewBox="0 0 20 18" version="1.1" xmlns="http://www.w3.org/2000/svg" xmlns:xlink="http://www.w3.org/1999/xlink">
    <!-- Generator: Sketch 43.1 (39012) - http://www.bohemiancoding.com/sketch -->
    <title>icon_cooperation</title>
    <desc>Created with Sketch.</desc>
    <defs></defs>
    <g id="Page-1" stroke="none" stroke-width="1" fill="none" fill-rule="evenodd">
        <g id="content" transform="translate(-986.000000, -705.000000)" fill="#FFFFFF">
            <g id="icon_cooperation" transform="translate(986.000000, 705.000000)">
                <g id="icon_coperation">
                    <path d="M0,6.00585866 C0,4.89805351 0.898212381,4 1.99079514,4 L18.0092049,4 C19.1086907,4 20,4.89706013 20,6.00585866 L20,15.9941413 C20,17.1019465 19.1017876,18 18.0092049,18 L1.99079514,18 C0.891309342,18 0,17.1029399 0,15.9941413 L0,6.00585866 Z M0,8 L0,9 L20,9 L20,8 L0,8 Z" id="Combined-Shape"></path>
                    <path d="M5,2.0048815 C5,0.897616023 5.88743329,0 6.99961498,0 L13.000385,0 C14.1047419,0 15,0.893899798 15,2.0048815 L15,5 L5,5 L5,2.0048815 Z M7,2 L7,4 L13,4 L13,2 L7,2 Z" id="Combined-Shape"></path>
                </g>
            </g>
        </g>
    </g>
</svg>