<?xml version="1.0" encoding="UTF-8" standalone="no"?>
<svg width="234px" height="207px" viewBox="0 0 234 207" version="1.1" xmlns="http://www.w3.org/2000/svg" xmlns:xlink="http://www.w3.org/1999/xlink">
    <!-- Generator: Sketch 43.1 (39012) - http://www.bohemiancoding.com/sketch -->
    <title>Group 13</title>
    <desc>Created with Sketch.</desc>
    <defs></defs>
    <g id="Page-1" stroke="none" stroke-width="1" fill="none" fill-rule="evenodd">
        <g id="时间转让说明-3" transform="translate(-58.000000, -77.000000)">
            <g id="Group-13" transform="translate(58.000000, 77.000000)">
                <g id="Group-4" transform="translate(122.000000, 0.000000)" fill="#E83D7A">
                    <rect id="Rectangle-15" x="0" y="0" width="4.8" height="125.275486"></rect>
                    <rect id="Rectangle-15-Copy" x="9.6" y="0" width="4.8" height="125.275486"></rect>
                    <rect id="Rectangle-15-Copy-2" x="19.2" y="0" width="4.8" height="125.275486"></rect>
                </g>
                <g id="Group-6" transform="translate(12.000000, 84.591346)" fill="#E83D7A">
                    <rect id="Rectangle-5" x="0" y="0" width="52.8" height="9.54479895"></rect>
                    <rect id="Rectangle-5-Copy" x="0" y="15.9230769" width="52.8" height="9.54479895"></rect>
                    <rect id="Rectangle-5-Copy-2" x="0" y="30.8509615" width="52.8" height="9.54479895"></rect>
                </g>
                <g id="Group-8" transform="translate(202.000000, 125.394231)" fill="#E83D7A">
                    <rect id="Rectangle-17" x="0" y="7.96153846" width="26.4315789" height="10.7378988"></rect>
                    <rect id="Rectangle-17" transform="translate(13.394886, 13.152252) rotate(-270.000000) translate(-13.394886, -13.152252) " x="0.17909689" y="7.78330261" width="26.4315789" height="10.7378988"></rect>
                </g>
                <g id="Group-12" transform="translate(75.000000, 26.870192)" fill="#E83D7A">
                    <rect id="Rectangle-18" x="0" y="0" width="9.6" height="9.54479895"></rect>
                    <rect id="Rectangle-18-Copy" x="9.6" y="9.54479895" width="9.6" height="9.54479895"></rect>
                    <rect id="Rectangle-18-Copy-2" x="19.2" y="19.0895979" width="9.6" height="9.54479895"></rect>
                </g>
                <g id="Group-5" transform="translate(20.800000, 149.544608)" stroke-width="3.69600008" stroke="#E83D7A">
                    <polyline id="Path-4" points="0 9.97865345 14.0651163 0 28.8 9.97865345"></polyline>
                    <polyline id="Path-4-Copy" points="0 19.1257524 14.0651163 9.14709899 28.8 19.1257524"></polyline>
                    <polyline id="Path-4-Copy-2" points="0 27.441297 14.0651163 17.4626435 28.8 27.441297"></polyline>
                </g>
                <g id="Group-10" transform="translate(175.000000, 179.134615)" fill="#E83D7A">
                    <rect id="Rectangle-19" x="7.71428571" y="0" width="7.71428571" height="7.55629917"></rect>
                    <rect id="Rectangle-19-Copy-4" x="23.1428571" y="0" width="7.71428571" height="7.55629917"></rect>
                    <rect id="Rectangle-19-Copy-8" x="38.5714286" y="0" width="7.71428571" height="7.55629917"></rect>
                    <rect id="Rectangle-19-Copy" x="0" y="7.55629917" width="7.71428571" height="7.55629917"></rect>
                    <rect id="Rectangle-19-Copy-5" x="15.4285714" y="7.55629917" width="7.71428571" height="7.55629917"></rect>
                    <rect id="Rectangle-19-Copy-6" x="30.8571429" y="7.55629917" width="7.71428571" height="7.55629917"></rect>
                    <rect id="Rectangle-19-Copy-9" x="46.2857143" y="7.55629917" width="7.71428571" height="7.55629917"></rect>
                    <rect id="Rectangle-19-Copy-3" x="7.71428571" y="15.1125983" width="7.71428571" height="7.55629917"></rect>
                    <rect id="Rectangle-19-Copy-7" x="23.1428571" y="15.1125983" width="7.71428571" height="7.55629917"></rect>
                    <rect id="Rectangle-19-Copy-10" x="38.5714286" y="15.1125983" width="7.71428571" height="7.55629917"></rect>
                </g>
                <g id="Group-11" transform="translate(32.488626, 45.778846)" fill="#E83D7A">
                    <polygon id="Rectangle-21" points="0 4.96587513 3.52941176 0 7.05882353 4.96587513 7.05882353 26.2481971 0 26.2481971"></polygon>
                    <polygon id="Rectangle-21-Copy" points="11 4.96587513 14.5294118 0 18.0588235 4.96587513 18.0588235 26.2481971 11 26.2481971"></polygon>
                    <polygon id="Rectangle-21-Copy-2" points="22 4.96587513 25.5294118 0 29.0588235 4.96587513 29.0588235 26.2481971 22 26.2481971"></polygon>
                </g>
                <ellipse id="Oval-15" fill="#FFFFFF" cx="183.5" cy="148.78125" rx="4.5" ry="4.47836538"></ellipse>
                <ellipse id="Oval-15-Copy" fill="#FFFFFF" cx="3" cy="72.6490385" rx="3" ry="2.98557692"></ellipse>
                <rect id="Rectangle-3" stroke="#E83D7A" stroke-width="4.8" x="36.4" y="18.3230769" width="12.1876777" height="12.0899967"></rect>
                <rect id="Rectangle-3-Copy" stroke="#FFFFFF" stroke-width="4.8" x="112.4" y="24.2942308" width="1.17725118" height="1.14288134"></rect>
                <rect id="Rectangle-3-Copy-2" stroke="#FFFFFF" stroke-width="4.8" x="223.4" y="56.1403846" width="3.2" height="3.15399913"></rect>
                <rect id="Rectangle-3-Copy-3" stroke="#FFFFFF" stroke-width="4.8" x="230.4" y="111.871154" width="1.17725118" height="1.14288134"></rect>
                <rect id="Rectangle-16" fill="#E83D7A" transform="translate(210.364784, 84.954376) rotate(-315.000000) translate(-210.364784, -84.954376) " x="194.770326" y="69.449588" width="31.1889163" height="31.0095766"></rect>
                <polygon id="Rectangle-16-Copy" fill="#E83D7A" transform="translate(116.203159, 181.327183) rotate(-315.000000) translate(-116.203159, -181.327183) " points="131.203159 166.413434 131.203159 196.240931 101.203159 196.240931"></polygon>
                <ellipse id="Oval-15-Copy-2" fill="#FFFFFF" cx="67" cy="133.355769" rx="2" ry="1.99038462"></ellipse>
                <g id="Group-2" transform="translate(146.000000, 191.076923)" fill="#E83D7A">
                    <rect id="Rectangle-14" transform="translate(7.895035, 7.961538) rotate(45.000000) translate(-7.895035, -7.961538) " x="5.89503452" y="-1.08566434" width="4" height="18.0944056"></rect>
                    <rect id="Rectangle-14" transform="translate(7.895035, 7.961538) scale(-1, 1) rotate(45.000000) translate(-7.895035, -7.961538) " x="5.89503452" y="-1.08566434" width="4" height="18.0944056"></rect>
                </g>
                <polygon id="Star" fill="#E83D7A" points="195 57.7846097 183 57.7846097 189 47.3923048 195 37 201 47.3923048 207 57.7846097"></polygon>
                <circle id="Oval-11" fill="#E83D7A" cx="70.5" cy="186.5" r="6.5"></circle>
            </g>
        </g>
    </g>
</svg>