<?xml version="1.0" encoding="UTF-8" standalone="no"?>
<svg width="236px" height="216px" viewBox="0 0 236 216" version="1.1" xmlns="http://www.w3.org/2000/svg" xmlns:xlink="http://www.w3.org/1999/xlink">
    <!-- Generator: Sketch 43.1 (39012) - http://www.bohemiancoding.com/sketch -->
    <title>Group 13</title>
    <desc>Created with Sketch.</desc>
    <defs></defs>
    <g id="Page-1" stroke="none" stroke-width="1" fill="none" fill-rule="evenodd">
        <g id="时间转让说明-5" transform="translate(-60.000000, -75.000000)">
            <g id="Group-13" transform="translate(60.000000, 75.000000)">
                <g id="Group-4" transform="translate(210.600000, 89.181818)" fill="#86DC27">
                    <rect id="Rectangle-15" x="0" y="0" width="2" height="63"></rect>
                    <rect id="Rectangle-15-Copy" x="5" y="0" width="2" height="63"></rect>
                    <rect id="Rectangle-15-Copy-2" x="10" y="0" width="2" height="63"></rect>
                </g>
                <g id="Group-6" transform="translate(20.200000, 123.125000)" fill="#86DC27">
                    <rect id="Rectangle-5" x="0" y="0" width="52.8" height="9.59090909"></rect>
                    <rect id="Rectangle-5-Copy" x="0" y="16" width="52.8" height="9.59090909"></rect>
                    <rect id="Rectangle-5-Copy-2" x="0" y="31" width="52.8" height="9.59090909"></rect>
                </g>
                <g id="Group-8" transform="translate(17.000000, 22.000000)" fill="#86DC27">
                    <rect id="Rectangle-17" x="0" y="8" width="26.4315789" height="10.7897727"></rect>
                    <rect id="Rectangle-17" transform="translate(13.394886, 13.215789) rotate(-270.000000) translate(-13.394886, -13.215789) " x="0.17909689" y="7.82090311" width="26.4315789" height="10.7897727"></rect>
                </g>
                <g id="Group-12" transform="translate(70.400000, 23.159091)" fill="#86DC27">
                    <rect id="Rectangle-18" x="0" y="0" width="9.6" height="9.59090909"></rect>
                    <rect id="Rectangle-18-Copy" x="9.6" y="9.59090909" width="9.6" height="9.59090909"></rect>
                    <rect id="Rectangle-18-Copy-2" x="19.2" y="19.1818182" width="9.6" height="9.59090909"></rect>
                </g>
                <g id="Group-5" transform="translate(134.800000, 32.267045)" stroke-width="3.69600008" stroke="#86DC27">
                    <polyline id="Path-4" points="0 10.0268595 14.0651163 0 28.8 10.0268595"></polyline>
                    <polyline id="Path-4-Copy" points="0 19.0268595 14.0651163 9 28.8 19.0268595"></polyline>
                    <polyline id="Path-4-Copy-2" points="0 27.0268595 14.0651163 17 28.8 27.0268595"></polyline>
                </g>
                <g id="Group-10" transform="translate(182.000000, 30.500000)" fill="#86DC27">
                    <rect id="Rectangle-19" x="7.71428571" y="0" width="7.71428571" height="7.59280303"></rect>
                    <rect id="Rectangle-19-Copy-4" x="23.1428571" y="0" width="7.71428571" height="7.59280303"></rect>
                    <rect id="Rectangle-19-Copy-8" x="38.5714286" y="0" width="7.71428571" height="7.59280303"></rect>
                    <rect id="Rectangle-19-Copy" x="0" y="7.59280303" width="7.71428571" height="7.59280303"></rect>
                    <rect id="Rectangle-19-Copy-5" x="15.4285714" y="7.59280303" width="7.71428571" height="7.59280303"></rect>
                    <rect id="Rectangle-19-Copy-6" x="30.8571429" y="7.59280303" width="7.71428571" height="7.59280303"></rect>
                    <rect id="Rectangle-19-Copy-9" x="46.2857143" y="7.59280303" width="7.71428571" height="7.59280303"></rect>
                    <rect id="Rectangle-19-Copy-3" x="7.71428571" y="15.1856061" width="7.71428571" height="7.59280303"></rect>
                    <rect id="Rectangle-19-Copy-7" x="23.1428571" y="15.1856061" width="7.71428571" height="7.59280303"></rect>
                    <rect id="Rectangle-19-Copy-10" x="38.5714286" y="15.1856061" width="7.71428571" height="7.59280303"></rect>
                </g>
                <g id="Group-11" transform="translate(160.400000, 172.840909)" fill="#86DC27">
                    <polygon id="Rectangle-21" points="0 4.98986486 3.52941176 0 7.05882353 4.98986486 7.05882353 26.375 0 26.375"></polygon>
                    <polygon id="Rectangle-21-Copy" points="10.8 4.98986486 14.3294118 0 17.8588235 4.98986486 17.8588235 26.375 10.8 26.375"></polygon>
                    <polygon id="Rectangle-21-Copy-2" points="21.6 4.98986486 25.1294118 0 28.6588235 4.98986486 28.6588235 26.375 21.6 26.375"></polygon>
                </g>
                <circle id="Oval-15" fill="#FFFFFF" cx="183.5" cy="157.5" r="4.5"></circle>
                <circle id="Oval-15-Copy" fill="#FFFFFF" cx="3" cy="81" r="3"></circle>
                <ellipse id="Oval-14" fill="#86DC27" cx="216" cy="118.982955" rx="18" ry="17.9829545"></ellipse>
                <rect id="Rectangle-3" stroke="#86DC27" stroke-width="4.8" x="54.8796209" y="184.9" width="4.18009479" height="4.17159091"></rect>
                <rect id="Rectangle-3-Copy" stroke="#FFFFFF" stroke-width="4.8" x="112.4" y="32.4" width="1.17725118" height="1.17159091"></rect>
                <rect id="Rectangle-3-Copy-2" stroke="#FFFFFF" stroke-width="4.8" x="223.4" y="70.4" width="3.2" height="3.19242424"></rect>
                <rect id="Rectangle-3-Copy-3" stroke="#FFFFFF" stroke-width="4.8" x="46.4" y="201.4" width="1.17725118" height="1.17159091"></rect>
                <rect id="Rectangle-16" fill="#86DC27" transform="translate(43.742613, 83.742613) rotate(-315.000000) translate(-43.742613, -83.742613) " x="30.4833063" y="70.4958624" width="26.5186141" height="26.4935018"></rect>
                <polygon id="Rectangle-16-Copy" fill="#86DC27" transform="translate(112.203159, 194.203159) rotate(-315.000000) translate(-112.203159, -194.203159) " points="127.203159 179.217364 127.203159 209.188955 97.2031593 209.188955"></polygon>
                <circle id="Oval-15-Copy-2" fill="#FFFFFF" cx="67" cy="142" r="2"></circle>
                <g id="Group-2" transform="translate(100.000000, 0.000000)" fill="#86DC27">
                    <rect id="Rectangle-14" transform="translate(7.842457, 7.842457) rotate(45.000000) translate(-7.842457, -7.842457) " x="5.84245703" y="-1.24845206" width="4" height="18.1818182"></rect>
                    <rect id="Rectangle-14" transform="translate(7.842457, 7.842457) scale(-1, 1) rotate(45.000000) translate(-7.842457, -7.842457) " x="5.84245703" y="-1.24845206" width="4" height="18.1818182"></rect>
                </g>
            </g>
        </g>
    </g>
</svg>