<?xml version="1.0" encoding="UTF-8" standalone="no"?>
<svg width="238px" height="193px" viewBox="0 0 238 193" version="1.1" xmlns="http://www.w3.org/2000/svg" xmlns:xlink="http://www.w3.org/1999/xlink">
    <!-- Generator: Sketch 43.1 (39012) - http://www.bohemiancoding.com/sketch -->
    <title>Group 13</title>
    <desc>Created with Sketch.</desc>
    <defs></defs>
    <g id="Page-1" stroke="none" stroke-width="1" fill="none" fill-rule="evenodd">
        <g id="时间转让说明-4" transform="translate(-68.000000, -90.000000)">
            <g id="Group-13" transform="translate(68.000000, 90.000000)">
                <g id="Group-4" transform="translate(114.000000, 4.000000)" fill="#852DC3">
                    <rect id="Rectangle-15" x="0" y="0" width="8.6" height="32.96875"></rect>
                    <rect id="Rectangle-15-Copy" x="17.2" y="0" width="8.6" height="32.96875"></rect>
                    <rect id="Rectangle-15-Copy-2" x="34.4" y="0" width="8.6" height="32.96875"></rect>
                </g>
                <g id="Group-6" transform="translate(180.000000, 108.000000)" fill="#852DC3">
                    <rect id="Rectangle-5" x="0" y="0" width="53.7962264" height="5.14634146"></rect>
                    <rect id="Rectangle-5-Copy" x="0" y="8.58536585" width="53.7962264" height="5.14634146"></rect>
                    <rect id="Rectangle-5-Copy-2" x="0" y="16.6341463" width="53.7962264" height="5.14634146"></rect>
                </g>
                <g id="Group-8" transform="translate(6.000000, 140.000000)" fill="#852DC3">
                    <rect id="Rectangle-17" x="0" y="6.51851852" width="21.5368421" height="8.79166667"></rect>
                    <rect id="Rectangle-17" transform="translate(10.914352, 10.768421) rotate(-270.000000) translate(-10.914352, -10.768421) " x="0.145930799" y="6.37258772" width="21.5368421" height="8.79166667"></rect>
                </g>
                <g id="Group-12" transform="translate(67.000000, 13.000000)" fill="#852DC3">
                    <rect id="Rectangle-18" x="0" y="0" width="9.6" height="9.59090909"></rect>
                    <rect id="Rectangle-18-Copy" x="9.6" y="9.59090909" width="9.6" height="9.59090909"></rect>
                    <rect id="Rectangle-18-Copy-2" x="19.2" y="19.1818182" width="9.6" height="9.59090909"></rect>
                </g>
                <g id="Group-5" transform="translate(44.000000, 150.000000)" stroke-width="3.69600008" stroke="#842DC2">
                    <polyline id="Path-4" points="0 10.0268595 14.0651163 0 28.8 10.0268595"></polyline>
                    <polyline id="Path-4-Copy" points="0 19.2181474 14.0651163 9.19128788 28.8 19.2181474"></polyline>
                    <polyline id="Path-4-Copy-2" points="0 27.5738636 14.0651163 17.5470041 28.8 27.5738636"></polyline>
                </g>
                <g id="Group-10" transform="translate(93.000000, 170.000000)" fill="#852DC3">
                    <rect id="Rectangle-19" x="7.71428571" y="0" width="7.71428571" height="7.59280303"></rect>
                    <rect id="Rectangle-19-Copy-4" x="23.1428571" y="0" width="7.71428571" height="7.59280303"></rect>
                    <rect id="Rectangle-19-Copy-8" x="38.5714286" y="0" width="7.71428571" height="7.59280303"></rect>
                    <rect id="Rectangle-19-Copy" x="0" y="7.59280303" width="7.71428571" height="7.59280303"></rect>
                    <rect id="Rectangle-19-Copy-5" x="15.4285714" y="7.59280303" width="7.71428571" height="7.59280303"></rect>
                    <rect id="Rectangle-19-Copy-6" x="30.8571429" y="7.59280303" width="7.71428571" height="7.59280303"></rect>
                    <rect id="Rectangle-19-Copy-9" x="46.2857143" y="7.59280303" width="7.71428571" height="7.59280303"></rect>
                    <rect id="Rectangle-19-Copy-3" x="7.71428571" y="15.1856061" width="7.71428571" height="7.59280303"></rect>
                    <rect id="Rectangle-19-Copy-7" x="23.1428571" y="15.1856061" width="7.71428571" height="7.59280303"></rect>
                    <rect id="Rectangle-19-Copy-10" x="38.5714286" y="15.1856061" width="7.71428571" height="7.59280303"></rect>
                </g>
                <g id="Group-11" transform="translate(36.488626, 53.500000) rotate(-90.000000) translate(-36.488626, -53.500000) translate(21.488626, 37.000000)" fill="#852DC3">
                    <polygon id="Rectangle-21" points="0 6.09872372 3.52941176 0 7.05882353 6.09872372 7.05882353 32.2361111 0 32.2361111"></polygon>
                    <polygon id="Rectangle-21-Copy" points="11 6.09872372 14.5294118 0 18.0588235 6.09872372 18.0588235 32.2361111 11 32.2361111"></polygon>
                    <polygon id="Rectangle-21-Copy-2" points="22 6.09872372 25.5294118 0 29.0588235 6.09872372 29.0588235 32.2361111 22 32.2361111"></polygon>
                </g>
                <circle id="Oval-15" fill="#FFFFFF" cx="147.5" cy="163.5" r="4.5"></circle>
                <circle id="Oval-15-Copy" fill="#FFFFFF" cx="3" cy="67" r="3"></circle>
                <rect id="Rectangle-3" stroke="#852DC3" stroke-width="4.8" x="186.4" y="34.4284091" width="12.1876777" height="12.1715909"></rect>
                <rect id="Rectangle-3-Copy" stroke="#FFFFFF" stroke-width="4.8" x="104.4" y="18.4" width="1.17725118" height="1.17159091"></rect>
                <rect id="Rectangle-3-Copy-2" stroke="#FFFFFF" stroke-width="4.8" x="232.4" y="53.4" width="3.2" height="3.19242424"></rect>
                <rect id="Rectangle-3-Copy-3" stroke="#FFFFFF" stroke-width="4.8" x="222.4" y="166.4" width="1.17725118" height="1.17159091"></rect>
                <rect id="Rectangle-16" fill="#852DC3" transform="translate(40.005330, 103.515337) rotate(-315.000000) translate(-40.005330, -103.515337) " x="22.6666002" y="86.1930262" width="34.6774599" height="34.6446214"></rect>
                <polygon id="Rectangle-16-Copy" fill="#832CC1" transform="translate(179.588001, 175.598985) rotate(-270.000000) translate(-179.588001, -175.598985) " points="191.186987 164.010984 191.186987 187.186987 167.989016 187.186987"></polygon>
                <circle id="Oval-15-Copy-2" fill="#FFFFFF" cx="59" cy="128" r="2"></circle>
                <g id="Group-2" transform="translate(181.000000, 143.000000)" fill="#842DC2">
                    <rect id="Rectangle-14" transform="translate(7.895035, 8.000000) rotate(45.000000) translate(-7.895035, -8.000000) " x="5.89503452" y="-1.09090909" width="4" height="18.1818182"></rect>
                    <rect id="Rectangle-14" transform="translate(7.895035, 8.000000) scale(-1, 1) rotate(45.000000) translate(-7.895035, -8.000000) " x="5.89503452" y="-1.09090909" width="4" height="18.1818182"></rect>
                </g>
                <polygon id="Star" fill="#852DC3" points="198.773874 94 179.588001 94 189.180938 81.5 198.773874 69 208.36681 81.5 217.959746 94"></polygon>
                <circle id="Oval-11" fill="#832CC1" cx="42.5" cy="6.5" r="6.5"></circle>
            </g>
        </g>
    </g>
</svg>