<?xml version="1.0" encoding="UTF-8" standalone="no"?>
<svg width="250px" height="217px" viewBox="0 0 250 217" version="1.1" xmlns="http://www.w3.org/2000/svg" xmlns:xlink="http://www.w3.org/1999/xlink">
    <!-- Generator: Sketch 43.1 (39012) - http://www.bohemiancoding.com/sketch -->
    <title>Group 8</title>
    <desc>Created with Sketch.</desc>
    <defs>
        <ellipse id="path-1" cx="28" cy="122.989583" rx="11" ry="10.9895833"></ellipse>
    </defs>
    <g id="Page-1" stroke="none" stroke-width="1" fill="none" fill-rule="evenodd">
        <g id="时间转让说明-2" transform="translate(-60.000000, -71.000000)">
            <g id="Group-8" transform="translate(60.000000, 71.000000)">
                <rect id="Rectangle-5" fill="#62CEDA" x="197.2" y="91.125" width="52.8" height="9.59090909"></rect>
                <rect id="Rectangle-5-Copy" fill="#62CEDA" x="197.2" y="106.710227" width="52.8" height="9.59090909"></rect>
                <rect id="Rectangle-5-Copy-2" fill="#62CEDA" x="197.2" y="122.295455" width="52.8" height="9.59090909"></rect>
                <rect id="Rectangle-17" fill="#62CEDA" x="34" y="72" width="26.4315789" height="10.7897727"></rect>
                <rect id="Rectangle-17" fill="#62CEDA" transform="translate(47.394886, 77.215789) rotate(-270.000000) translate(-47.394886, -77.215789) " x="34.1790969" y="71.8209031" width="26.4315789" height="10.7897727"></rect>
                <rect id="Rectangle-18" fill="#62CEDA" x="70.4" y="30.1590909" width="9.6" height="9.59090909"></rect>
                <rect id="Rectangle-18-Copy" fill="#62CEDA" x="80" y="39.75" width="9.6" height="9.59090909"></rect>
                <rect id="Rectangle-18-Copy-2" fill="#62CEDA" x="89.6" y="49.3409091" width="9.6" height="9.59090909"></rect>
                <polyline id="Path-4" stroke="#62CEDA" stroke-width="3.69600008" transform="translate(225.200000, 157.280475) rotate(-180.000000) translate(-225.200000, -157.280475) " points="210.8 162.293905 224.865116 152.267045 239.6 162.293905"></polyline>
                <polyline id="Path-4-Copy" stroke="#62CEDA" stroke-width="3.69600008" transform="translate(225.200000, 166.471763) rotate(-180.000000) translate(-225.200000, -166.471763) " points="210.8 171.485193 224.865116 161.458333 239.6 171.485193"></polyline>
                <polyline id="Path-4-Copy-2" stroke="#62CEDA" stroke-width="3.69600008" transform="translate(225.200000, 174.827479) rotate(-180.000000) translate(-225.200000, -174.827479) " points="210.8 179.840909 224.865116 169.81405 239.6 179.840909"></polyline>
                <rect id="Rectangle-19" fill="#62CEDA" x="134.714286" y="20" width="7.71428571" height="7.59280303"></rect>
                <rect id="Rectangle-19-Copy-4" fill="#62CEDA" x="150.142857" y="20" width="7.71428571" height="7.59280303"></rect>
                <rect id="Rectangle-19-Copy-8" fill="#62CEDA" x="165.571429" y="20" width="7.71428571" height="7.59280303"></rect>
                <rect id="Rectangle-19-Copy" fill="#62CEDA" x="127" y="27.592803" width="7.71428571" height="7.59280303"></rect>
                <rect id="Rectangle-19-Copy-5" fill="#62CEDA" x="142.428571" y="27.592803" width="7.71428571" height="7.59280303"></rect>
                <rect id="Rectangle-19-Copy-6" fill="#62CEDA" x="157.857143" y="27.592803" width="7.71428571" height="7.59280303"></rect>
                <rect id="Rectangle-19-Copy-9" fill="#62CEDA" x="173.285714" y="27.592803" width="7.71428571" height="7.59280303"></rect>
                <rect id="Rectangle-19-Copy-3" fill="#62CEDA" x="134.714286" y="35.1856061" width="7.71428571" height="7.59280303"></rect>
                <rect id="Rectangle-19-Copy-7" fill="#62CEDA" x="150.142857" y="35.1856061" width="7.71428571" height="7.59280303"></rect>
                <rect id="Rectangle-19-Copy-10" fill="#62CEDA" x="165.571429" y="35.1856061" width="7.71428571" height="7.59280303"></rect>
                <polygon id="Rectangle-21" fill="#62CEDA" points="160.5 194.087337 162.325558 191.5 164.151116 194.087337 164.151116 205.175926 160.5 205.175926"></polygon>
                <polygon id="Rectangle-21-Copy" fill="#62CEDA" points="160.5 199.673544 162.325558 197.086207 164.151116 199.673544 164.151116 210.762133 160.5 210.762133"></polygon>
                <polygon id="Rectangle-21-Copy-2" fill="#62CEDA" points="160.5 205.259751 162.325558 202.672414 164.151116 205.259751 164.151116 216.34834 160.5 216.34834"></polygon>
                <circle id="Oval-15" fill="#FFFFFF" cx="224.5" cy="73.5" r="4.5"></circle>
                <circle id="Oval-15-Copy" fill="#FFFFFF" cx="3" cy="88" r="3"></circle>
                <g id="Oval-14-Copy">
                    <use fill="#62CEDA" fill-rule="evenodd" xlink:href="#path-1"></use>
                    <ellipse stroke="#62CEDA" stroke-width="6" cx="28" cy="122.989583" rx="8" ry="7.98958333"></ellipse>
                </g>
                <rect id="Rectangle-3" stroke="#62CEDA" stroke-width="4.8" x="191.4" y="202.4" width="5.18104265" height="5.17159091"></rect>
                <rect id="Rectangle-3-Copy" stroke="#FFFFFF" stroke-width="4.8" x="115.4" y="45.4" width="1.17725118" height="1.17159091"></rect>
                <rect id="Rectangle-3-Copy-4" stroke="#FFFFFF" stroke-width="4.8" x="106.4" y="189.4" width="1.17725118" height="1.17159091"></rect>
                <rect id="Rectangle-3-Copy-2" stroke="#FFFFFF" stroke-width="4.8" x="30.4" y="168.4" width="3.2" height="3.19242424"></rect>
                <rect id="Rectangle-3-Copy-3" stroke="#FFFFFF" stroke-width="4.8" x="46.4" y="15.4" width="1.17725118" height="1.17159091"></rect>
                <rect id="Rectangle-16" fill="#62CEDA" transform="translate(101.377657, 14.377657) rotate(-315.000000) translate(-101.377657, -14.377657) " x="91.2063022" y="4.21593415" width="20.3427092" height="20.3234452"></rect>
                <polygon id="Rectangle-16-Copy" fill="#62CEDA" transform="translate(219.101343, 33.101343) rotate(-315.000000) translate(-219.101343, -33.101343) " points="226.247454 25.9619983 226.247454 40.240687 211.955231 40.240687"></polygon>
                <polygon id="Rectangle-16-Copy-2" fill="#62CEDA" transform="translate(61.313708, 190.313708) rotate(-135.000000) translate(-61.313708, -190.313708) " points="69.3137085 182.313708 69.3137085 198.313708 53.3137085 198.313708"></polygon>
                <circle id="Oval-15-Copy-2" fill="#FFFFFF" cx="67" cy="149" r="2"></circle>
                <rect id="Rectangle-14" fill="#62CEDA" transform="translate(184.842552, 61.000000) rotate(45.000000) translate(-184.842552, -61.000000) " x="181.842552" y="47.3636364" width="6" height="27.2727273"></rect>
                <rect id="Rectangle-14" fill="#62CEDA" transform="translate(184.842552, 61.000000) scale(-1, 1) rotate(45.000000) translate(-184.842552, -61.000000) " x="181.842552" y="47.3636364" width="6" height="27.2727273"></rect>
            </g>
        </g>
    </g>
</svg>