<?xml version="1.0" encoding="UTF-8" standalone="no"?>
<svg width="23px" height="21px" viewBox="0 0 23 21" version="1.1" xmlns="http://www.w3.org/2000/svg" xmlns:xlink="http://www.w3.org/1999/xlink">
    <!-- Generator: Sketch 43.1 (39012) - http://www.bohemiancoding.com/sketch -->
    <title>Page 1</title>
    <desc>Created with Sketch.</desc>
    <defs></defs>
    <g id="Page-1" stroke="none" stroke-width="1" fill="none" fill-rule="evenodd" opacity="0.400000006">
        <g id="2" transform="translate(-176.000000, -622.000000)" fill="#4EA8FB">
            <g id="Page-1" transform="translate(176.000000, 622.000000)">
                <path d="M20.5857338,8.87899717 L11.500028,17.6851528 L2.41432229,8.87899717 C1.86196362,8.34240275 0.966507517,8.34240275 0.414244971,8.87899717 C-0.138081657,9.41559159 -0.138081657,10.2855767 0.414244971,10.8221711 L10.4999894,20.597602 C11.0522199,21.1341327 11.947676,21.1341327 12.5000347,20.597602 L22.585747,10.8221711 C23.1380096,10.2855767 23.1380096,9.41559159 22.585747,8.87896528 C22.0334204,8.34240275 21.1379322,8.34237086 20.5857017,8.87896528 L20.5857338,8.87899717 Z M10.5000535,12.1210746 C11.052284,12.6576052 11.9477401,12.6576052 12.5000667,12.1210746 L22.5857791,2.34564364 C23.1380736,1.80904922 23.1380736,0.939064149 22.5857791,0.402469729 C22.0334845,-0.134156576 21.1380284,-0.134156576 20.5857338,0.402469729 L11.500028,9.20862538 L2.41432229,0.402469729 C1.86196362,-0.134156576 0.966507517,-0.134156576 0.414244971,0.402469729 C-0.138081657,0.939064149 -0.138081657,1.80901734 0.414244971,2.34564364 L10.4999573,12.1210427 L10.5000535,12.1210746 Z" id="Fill-1"></path>
            </g>
        </g>
    </g>
</svg>