<?xml version="1.0" encoding="UTF-8" standalone="no"?>
<svg width="375px" height="667px" viewBox="0 0 375 667" version="1.1" xmlns="http://www.w3.org/2000/svg" xmlns:xlink="http://www.w3.org/1999/xlink">
    <!-- Generator: Sketch 43.1 (39012) - http://www.bohemiancoding.com/sketch -->
    <title>bk</title>
    <desc>Created with Sketch.</desc>
    <defs></defs>
    <g id="Page-1" stroke="none" stroke-width="1" fill="none" fill-rule="evenodd" opacity="0.200000003">
        <g id="2" fill="#808184">
            <g id="bk" transform="translate(-243.000000, -156.000000)">
                <g id="Group-9-Copy" transform="translate(547.000000, 571.000000)">
                    <g id="Page-1-Copy">
                        <polygon id="Fill-7" points="1.4966 257.63759 0.7886 256.976203 275.2736 0.199912903 275.9806 0.862235484"></polygon>
                        <polygon id="Fill-8" points="33.3433 237.890087 32.6363 237.2287 280.6423 5.2230871 281.3493 5.88447419"></polygon>
                        <polygon id="Fill-9" points="13.3643 266.626094 12.6573 265.964706 286.0113 10.2455129 286.7183 10.9078355"></polygon>
                        <polygon id="Fill-10" points="49.8355 242.552913 49.1285 241.891526 292.7225 14.0123323 293.4305 14.6746548"></polygon>
                        <polygon id="Fill-11" points="10.0176 289.847797 9.3106 289.18641 298.0926 19.0355065 298.7996 19.6968935"></polygon>
                        <polygon id="Fill-12" points="54.397 258.376623 53.69 257.715235 303.461 24.0575581 304.168 24.7198806"></polygon>
                        <polygon id="Fill-13" points="32.4063 288.993606 31.6993 288.332219 308.8303 29.0806387 309.5373 29.7420258"></polygon>
                        <polygon id="Fill-14" points="55.3096 277.613445 54.6026 276.952058 314.1996 34.1032516 314.9066 34.7646387"></polygon>
                    </g>
                </g>
                <g id="Page-1" transform="translate(294.000000, 0.000000)">
                    <polygon id="Fill-1" points="296.0595 0.0008 52.4645 243.5948 53.1725 244.3018 296.7665 0.7068"></polygon>
                    <polygon id="Fill-2" points="70.0171 238.1947 69.3101 237.4877 301.4281 5.3697 302.1351 6.0767"></polygon>
                    <polygon id="Fill-3" points="57.7334 261.2172 57.0264 260.5102 306.7974 10.7392 307.5044 11.4462"></polygon>
                    <polygon id="Fill-4" points="35.7427 293.9457 35.0357 293.2387 312.1667 16.1077 312.8737 16.8147"></polygon>
                    <polygon id="Fill-5" points="19.0474 321.3783 18.3404 320.6713 317.5354 21.4763 318.2424 22.1833"></polygon>
                    <polygon id="Fill-6" points="1.4688 349.6957 0.7618 348.9887 322.9038 26.8457 323.6118 27.5527"></polygon>
                    <polygon id="Fill-7" points="54.4966 307.4057 53.7886 306.6987 328.2736 32.2137 328.9806 32.9217"></polygon>
                    <polygon id="Fill-8" points="86.3433 286.2963 85.6363 285.5893 333.6423 37.5833 334.3493 38.2903"></polygon>
                    <polygon id="Fill-9" points="66.3643 317.0141 65.6573 316.3071 339.0113 42.9521 339.7183 43.6601"></polygon>
                    <polygon id="Fill-10" points="102.8355 291.2807 102.1285 290.5737 345.7225 46.9787 346.4305 47.6867"></polygon>
                    <polygon id="Fill-11" points="63.0176 341.8373 62.3106 341.1303 351.0926 52.3483 351.7996 53.0553"></polygon>
                    <polygon id="Fill-12" points="107.397 308.1957 106.69 307.4887 356.461 57.7167 357.168 58.4247"></polygon>
                    <polygon id="Fill-13" points="85.4063 340.9242 84.6993 340.2172 361.8303 63.0862 362.5373 63.7932"></polygon>
                    <polygon id="Fill-14" points="108.3096 328.7592 107.6026 328.0522 367.1996 68.4552 367.9066 69.1622"></polygon>
                    <polygon id="Fill-15" points="83.5508 364.2553 82.8438 363.5483 372.5688 73.8243 373.2758 74.5313"></polygon>
                    <polygon id="Fill-16" points="104.1602 354.3842 103.4532 353.6772 377.9372 79.1932 378.6442 79.9002"></polygon>
                    <polygon id="Fill-17" points="136.0069 333.2758 135.2999 332.5688 383.3069 84.5628 384.0139 85.2698"></polygon>
                    <polygon id="Fill-18" points="174.0328 305.9877 173.3258 305.2807 388.6758 89.9317 389.3828 90.6387"></polygon>
                </g>
                <g id="Page-1-Copy-2" transform="translate(205.000000, 593.000000) rotate(-180.000000) translate(-205.000000, -593.000000) translate(26.000000, 418.000000)">
                    <polygon id="Fill-1" points="296.0595 0.0008 52.4645 243.5948 53.1725 244.3018 296.7665 0.7068"></polygon>
                    <polygon id="Fill-2" points="70.0171 238.1947 69.3101 237.4877 301.4281 5.3697 302.1351 6.0767"></polygon>
                    <polygon id="Fill-3" points="57.7334 261.2172 57.0264 260.5102 306.7974 10.7392 307.5044 11.4462"></polygon>
                    <polygon id="Fill-4" points="35.7427 293.9457 35.0357 293.2387 312.1667 16.1077 312.8737 16.8147"></polygon>
                    <polygon id="Fill-5" points="19.0474 321.3783 18.3404 320.6713 317.5354 21.4763 318.2424 22.1833"></polygon>
                    <polygon id="Fill-6" points="1.4688 349.6957 0.7618 348.9887 322.9038 26.8457 323.6118 27.5527"></polygon>
                    <polygon id="Fill-7" points="54.4966 307.4057 53.7886 306.6987 328.2736 32.2137 328.9806 32.9217"></polygon>
                    <polygon id="Fill-8" points="86.3433 286.2963 85.6363 285.5893 333.6423 37.5833 334.3493 38.2903"></polygon>
                    <polygon id="Fill-9" points="66.3643 317.0141 65.6573 316.3071 339.0113 42.9521 339.7183 43.6601"></polygon>
                    <polygon id="Fill-10" points="102.8355 291.2807 102.1285 290.5737 345.7225 46.9787 346.4305 47.6867"></polygon>
                    <polygon id="Fill-11" points="63.0176 341.8373 62.3106 341.1303 351.0926 52.3483 351.7996 53.0553"></polygon>
                    <polygon id="Fill-12" points="107.397 308.1957 106.69 307.4887 356.461 57.7167 357.168 58.4247"></polygon>
                </g>
                <g id="Page-1-Copy-3" transform="translate(170.000000, 810.000000) rotate(-180.000000) translate(-170.000000, -810.000000) translate(0.000000, 640.000000)">
                    <polygon id="Fill-3" points="57.7334 251.2172 57.0264 250.5102 306.7974 0.7392 307.5044 1.4462"></polygon>
                    <polygon id="Fill-4" points="35.7427 283.9457 35.0357 283.2387 312.1667 6.1077 312.8737 6.8147"></polygon>
                    <polygon id="Fill-5" points="19.0474 311.3783 18.3404 310.6713 317.5354 11.4763 318.2424 12.1833"></polygon>
                    <polygon id="Fill-6" points="1.4688 339.6957 0.7618 338.9887 322.9038 16.8457 323.6118 17.5527"></polygon>
                    <polygon id="Fill-7" points="54.4966 297.4057 53.7886 296.6987 328.2736 22.2137 328.9806 22.9217"></polygon>
                    <polygon id="Fill-8" points="86.3433 276.2963 85.6363 275.5893 333.6423 27.5833 334.3493 28.2903"></polygon>
                    <polygon id="Fill-9" points="66.3643 307.0141 65.6573 306.3071 339.0113 32.9521 339.7183 33.6601"></polygon>
                </g>
                <g id="Group-9" transform="translate(489.000000, 183.000000)">
                    <g id="Page-1-Copy">
                        <polygon id="Fill-7" points="1.4966 275.4057 0.7886 274.6987 275.2736 0.2137 275.9806 0.9217"></polygon>
                        <polygon id="Fill-8" points="33.3433 254.2963 32.6363 253.5893 280.6423 5.5833 281.3493 6.2903"></polygon>
                        <polygon id="Fill-9" points="13.3643 285.0141 12.6573 284.3071 286.0113 10.9521 286.7183 11.6601"></polygon>
                        <polygon id="Fill-10" points="49.8355 259.2807 49.1285 258.5737 292.7225 14.9787 293.4305 15.6867"></polygon>
                        <polygon id="Fill-11" points="10.0176 309.8373 9.3106 309.1303 298.0926 20.3483 298.7996 21.0553"></polygon>
                        <polygon id="Fill-12" points="54.397 276.1957 53.69 275.4887 303.461 25.7167 304.168 26.4247"></polygon>
                        <polygon id="Fill-13" points="32.4063 308.9242 31.6993 308.2172 308.8303 31.0862 309.5373 31.7932"></polygon>
                        <polygon id="Fill-14" points="55.3096 296.7592 54.6026 296.0522 314.1996 36.4552 314.9066 37.1622"></polygon>
                        <polygon id="Fill-15" points="30.5508 332.2553 29.8438 331.5483 319.5688 41.8243 320.2758 42.5313"></polygon>
                        <polygon id="Fill-16" points="51.1602 322.3842 50.4532 321.6772 324.9372 47.1932 325.6442 47.9002"></polygon>
                        <polygon id="Fill-17" points="83.0069 301.2758 82.2999 300.5688 330.3069 52.5628 331.0139 53.2698"></polygon>
                        <polygon id="Fill-18" points="121.0328 273.9877 120.3258 273.2807 335.6758 57.9317 336.3828 58.6387"></polygon>
                    </g>
                </g>
            </g>
        </g>
    </g>
</svg>