<?xml version="1.0" encoding="UTF-8" standalone="no"?>
<svg width="31px" height="31px" viewBox="0 0 31 31" version="1.1" xmlns="http://www.w3.org/2000/svg" xmlns:xlink="http://www.w3.org/1999/xlink">
    <!-- Generator: Sketch 43.1 (39012) - http://www.bohemiancoding.com/sketch -->
    <title>服务人</title>
    <desc>Created with Sketch.</desc>
    <defs></defs>
    <g id="Page-1" stroke="none" stroke-width="1" fill="none" fill-rule="evenodd">
        <g id="4-1" transform="translate(-172.000000, -271.000000)">
            <g id="Group-3" transform="translate(114.000000, 247.000000)">
                <g id="服务人" transform="translate(58.000000, 24.000000)">
                    <circle id="Oval-16" fill="#4EA8FB" cx="15.5" cy="15.5" r="15.5"></circle>
                    <path d="M15.5046864,13.7318296 C16.9262712,13.7887594 18.4394732,12.6683135 18.445317,10.7222283 C18.4504688,9.01027961 17.1630226,7.70561904 15.4944597,7.70880805 C13.8255124,7.71199706 12.5414879,9.02413804 12.5534446,10.7327402 C12.5669777,12.6744553 14.0787956,13.792972 15.5046864,13.7318296 M13.7620762,13.9936043 C12.1129671,12.9777659 11.5433105,11.1527057 12.0329606,9.62697957 C12.5298771,8.07869417 13.9777591,6.98584704 15.5264085,7.00013854 C17.0797867,7.01446941 18.5127131,8.1259388 18.9827558,9.67910615 C19.451299,11.2273522 18.8422351,13.0051284 17.2372237,13.9914783 C17.3550611,14.0358095 17.4589426,14.0725422 17.5611709,14.1136844 C20.0147273,15.1013728 21.4464619,16.9461183 21.9195418,19.5851248 C21.9781337,19.9120577 21.9830933,20.2500537 21.9992791,20.5836402 C22.0113896,20.8329344 21.8697156,20.9963614 21.6646054,20.9999442 C21.4618019,21.0034481 21.3130538,20.8417927 21.3111315,20.5944671 C21.3024426,19.4770921 21.0594245,18.417395 20.5002253,17.4567541 C19.3814808,15.5348817 17.7354858,14.5146732 15.5304069,14.4652238 C12.8010378,14.4039633 10.2578635,16.4615458 9.77463382,19.5725656 C9.72054009,19.920798 9.71588811,20.2771406 9.68893736,20.6297824 C9.67501985,20.8121074 9.59393692,20.9419514 9.41393205,20.9869125 C9.25845582,21.0257318 9.13054548,20.9656524 9.05238446,20.8306902 C9.01290026,20.7625399 9.00021303,20.6693498 9.0000208,20.5874198 C8.99271603,17.639827 10.9099486,14.9426702 13.651928,14.0384079 C13.6816853,14.0286047 13.7102508,14.014825 13.7620762,13.9936043" id="Fill-1" stroke="#FFFFFF" stroke-width="0.5" fill="#FFFFFF"></path>
                    <polygon id="Star-2" fill="#FFFFFF" points="15.5 20.7157534 14.0305369 21.5225425 14.3437498 19.8756885 13.1223587 18.7274575 14.7853981 18.5164348 15.5 17 16.2146019 18.5164348 17.8776413 18.7274575 16.6562502 19.8756885 16.9694631 21.5225425"></polygon>
                </g>
            </g>
        </g>
    </g>
</svg>